HIERARCHY
ROOT Root
{
  OFFSET 0.0 0.0 0.0
  CHANNELS 6 Xposition Yposition Zposition Zrotation Yrotation Xrotation
  JOINT Hips
  {
    OFFSET 0.0 100.0 0.0
    CHANNELS 6 Xposition Yposition Zposition Zrotation Yrotation Xrotation
    JOINT Spine1
    {
      OFFSET 5.003913 -0.037094 -0.013727
      CHANNELS 3 Zrotation Yrotation Xrotation
      JOINT Spine2
      {
        OFFSET 7.125363 -1e-06 0.0
        CHANNELS 3 Zrotation Yrotation Xrotation
        JOINT Chest
        {
          OFFSET 7.594027 1e-06 0.0
          CHANNELS 3 Zrotation Yrotation Xrotation
          JOINT Neck1
          {
            OFFSET 26.313086 -0.460272 -0.181672
            CHANNELS 3 Zrotation Yrotation Xrotation
            JOINT Neck2
            {
              OFFSET 8.045911 0.0 0.0
              CHANNELS 3 Zrotation Yrotation Xrotation
              JOINT Head
              {
                OFFSET 6.432774 0.0 0.0
                CHANNELS 3 Zrotation Yrotation Xrotation
                JOINT HeadEnd
                {
                  OFFSET 16.169773 0.06451 0.00362
                  CHANNELS 3 Zrotation Yrotation Xrotation
                }
                JOINT Jaw
                {
                  OFFSET 0.108741 3.12938 0.002639
                  CHANNELS 3 Zrotation Yrotation Xrotation
                }
                JOINT LeftEye
                {
                  OFFSET 4.45173 8.166359 3.206392
                  CHANNELS 3 Zrotation Yrotation Xrotation
                }
                JOINT RightEye
                {
                  OFFSET 4.436895 8.135758 -3.222429
                  CHANNELS 3 Zrotation Yrotation Xrotation
                }
              }
            }
          }
          JOINT LeftShoulder
          {
            OFFSET 23.218927 5.195579 1.621656
            CHANNELS 3 Zrotation Yrotation Xrotation
            JOINT LeftArm
            {
              OFFSET 15.902118 2e-06 -2e-06
              CHANNELS 3 Zrotation Yrotation Xrotation
              JOINT LeftForeArm
              {
                OFFSET 28.739307 0.0 -1e-06
                CHANNELS 3 Zrotation Yrotation Xrotation
                JOINT LeftHand
                {
                  OFFSET 27.093981 -4e-06 0.0
                  CHANNELS 3 Zrotation Yrotation Xrotation
                  JOINT LeftHandThumb1
                  {
                    OFFSET 2.276781 3.380274 0.83384
                    CHANNELS 3 Zrotation Yrotation Xrotation
                    JOINT LeftHandThumb2
                    {
                      OFFSET 4.705309 -1e-06 -1e-06
                      CHANNELS 3 Zrotation Yrotation Xrotation
                      JOINT LeftHandThumb3
                      {
                        OFFSET 2.798515 0.0 3e-06
                        CHANNELS 3 Zrotation Yrotation Xrotation
                        JOINT LeftHandThumbEnd
                        {
                          OFFSET 3.180793 4e-06 -4e-06
                          CHANNELS 3 Zrotation Yrotation Xrotation
                        }
                      }
                    }
                  }
                  JOINT LeftHandIndex1
                  {
                    OFFSET 3.247786 2.352677 0.137192
                    CHANNELS 3 Zrotation Yrotation Xrotation
                    JOINT LeftHandIndex2
                    {
                      OFFSET 6.367095 1e-06 0.0
                      CHANNELS 3 Zrotation Yrotation Xrotation
                      JOINT LeftHandIndex3
                      {
                        OFFSET 3.662364 0.0 0.0
                        CHANNELS 3 Zrotation Yrotation Xrotation
                        JOINT LeftHandIndex4
                        {
                          OFFSET 2.329242 4e-06 -4e-06
                          CHANNELS 3 Zrotation Yrotation Xrotation
                          JOINT LeftHandIndexEnd
                          {
                            OFFSET 2.767823 1e-06 0.0
                            CHANNELS 3 Zrotation Yrotation Xrotation
                          }
                        }
                      }
                    }
                  }
                  JOINT LeftHandMiddle1
                  {
                    OFFSET 3.163612 0.945023 -0.406112
                    CHANNELS 3 Zrotation Yrotation Xrotation
                    JOINT LeftHandMiddle2
                    {
                      OFFSET 6.276789 3e-06 0.0
                      CHANNELS 3 Zrotation Yrotation Xrotation
                      JOINT LeftHandMiddle3
                      {
                        OFFSET 4.35652 -1e-06 4e-06
                        CHANNELS 3 Zrotation Yrotation Xrotation
                        JOINT LeftHandMiddle4
                        {
                          OFFSET 2.996877 0.0 8e-06
                          CHANNELS 3 Zrotation Yrotation Xrotation
                          JOINT LeftHandMiddleEnd
                          {
                            OFFSET 2.323256 3e-06 -4e-06
                            CHANNELS 3 Zrotation Yrotation Xrotation
                          }
                        }
                      }
                    }
                  }
                  JOINT LeftHandRing1
                  {
                    OFFSET 2.882606 -0.309162 0.107445
                    CHANNELS 3 Zrotation Yrotation Xrotation
                    JOINT LeftHandRing2
                    {
                      OFFSET 6.033198 0.0 4e-06
                      CHANNELS 3 Zrotation Yrotation Xrotation
                      JOINT LeftHandRing3
                      {
                        OFFSET 4.350578 3e-06 0.0
                        CHANNELS 3 Zrotation Yrotation Xrotation
                        JOINT LeftHandRing4
                        {
                          OFFSET 2.651321 2e-06 -7e-06
                          CHANNELS 3 Zrotation Yrotation Xrotation
                          JOINT LeftHandRingEnd
                          {
                            OFFSET 1.937663 1e-06 -4e-06
                            CHANNELS 3 Zrotation Yrotation Xrotation
                          }
                        }
                      }
                    }
                  }
                  JOINT LeftHandPinky1
                  {
                    OFFSET 2.865315 -1.525436 0.575687
                    CHANNELS 3 Zrotation Yrotation Xrotation
                    JOINT LeftHandPinky2
                    {
                      OFFSET 5.54936 1e-06 -8e-06
                      CHANNELS 3 Zrotation Yrotation Xrotation
                      JOINT LeftHandPinky3
                      {
                        OFFSET 3.070974 0.0 -4e-06
                        CHANNELS 3 Zrotation Yrotation Xrotation
                        JOINT LeftHandPinky4
                        {
                          OFFSET 1.549672 1e-06 0.0
                          CHANNELS 3 Zrotation Yrotation Xrotation
                          JOINT LeftHandPinkyEnd
                          {
                            OFFSET 1.952123 0.0 0.0
                            CHANNELS 3 Zrotation Yrotation Xrotation
                          }
                        }
                      }
                    }
                  }
                }
              }
            }
          }
          JOINT RightShoulder
          {
            OFFSET 23.161716 5.296122 -1.380114
            CHANNELS 3 Zrotation Yrotation Xrotation
            JOINT RightArm
            {
              OFFSET -16.027195 -2e-06 1.1e-05
              CHANNELS 3 Zrotation Yrotation Xrotation
              JOINT RightForeArm
              {
                OFFSET -28.736639 4e-06 2e-06
                CHANNELS 3 Zrotation Yrotation Xrotation
                JOINT RightHand
                {
                  OFFSET -27.133619 6e-06 0.0
                  CHANNELS 3 Zrotation Yrotation Xrotation
                  JOINT RightHandThumb1
                  {
                    OFFSET -2.274328 -3.351035 -0.83067
                    CHANNELS 3 Zrotation Yrotation Xrotation
                    JOINT RightHandThumb2
                    {
                      OFFSET -4.703594 -3e-06 2e-06
                      CHANNELS 3 Zrotation Yrotation Xrotation
                      JOINT RightHandThumb3
                      {
                        OFFSET -2.794935 -4e-06 -3e-06
                        CHANNELS 3 Zrotation Yrotation Xrotation
                        JOINT RightHandThumbEnd
                        {
                          OFFSET -3.183852 4e-06 1e-06
                          CHANNELS 3 Zrotation Yrotation Xrotation
                        }
                      }
                    }
                  }
                  JOINT RightHandIndex1
                  {
                    OFFSET -3.253496 -2.33755 -0.127667
                    CHANNELS 3 Zrotation Yrotation Xrotation
                    JOINT RightHandIndex2
                    {
                      OFFSET -6.344434 0.0 0.0
                      CHANNELS 3 Zrotation Yrotation Xrotation
                      JOINT RightHandIndex3
                      {
                        OFFSET -3.654871 0.0 -8e-06
                        CHANNELS 3 Zrotation Yrotation Xrotation
                        JOINT RightHandIndex4
                        {
                          OFFSET -2.327586 -1e-06 0.0
                          CHANNELS 3 Zrotation Yrotation Xrotation
                          JOINT RightHandIndexEnd
                          {
                            OFFSET -2.770001 3e-06 8e-06
                            CHANNELS 3 Zrotation Yrotation Xrotation
                          }
                        }
                      }
                    }
                  }
                  JOINT RightHandMiddle1
                  {
                    OFFSET -3.168223 -0.944764 0.411762
                    CHANNELS 3 Zrotation Yrotation Xrotation
                    JOINT RightHandMiddle2
                    {
                      OFFSET -6.266691 -1e-06 -4e-06
                      CHANNELS 3 Zrotation Yrotation Xrotation
                      JOINT RightHandMiddle3
                      {
                        OFFSET -4.348901 0.0 0.0
                        CHANNELS 3 Zrotation Yrotation Xrotation
                        JOINT RightHandMiddle4
                        {
                          OFFSET -3.00024 2e-06 -4e-06
                          CHANNELS 3 Zrotation Yrotation Xrotation
                          JOINT RightHandMiddleEnd
                          {
                            OFFSET -2.321477 -4e-06 -4e-06
                            CHANNELS 3 Zrotation Yrotation Xrotation
                          }
                        }
                      }
                    }
                  }
                  JOINT RightHandRing1
                  {
                    OFFSET -2.885654 0.293261 -0.119232
                    CHANNELS 3 Zrotation Yrotation Xrotation
                    JOINT RightHandRing2
                    {
                      OFFSET -6.032835 -1e-06 -4e-06
                      CHANNELS 3 Zrotation Yrotation Xrotation
                      JOINT RightHandRing3
                      {
                        OFFSET -4.33881 0.0 -4e-06
                        CHANNELS 3 Zrotation Yrotation Xrotation
                        JOINT RightHandRing4
                        {
                          OFFSET -2.654903 -4e-06 -4e-06
                          CHANNELS 3 Zrotation Yrotation Xrotation
                          JOINT RightHandRingEnd
                          {
                            OFFSET -1.935122 0.0 4e-06
                            CHANNELS 3 Zrotation Yrotation Xrotation
                          }
                        }
                      }
                    }
                  }
                  JOINT RightHandPinky1
                  {
                    OFFSET -2.866241 1.503904 -0.60527
                    CHANNELS 3 Zrotation Yrotation Xrotation
                    JOINT RightHandPinky2
                    {
                      OFFSET -5.553177 -2e-06 0.0
                      CHANNELS 3 Zrotation Yrotation Xrotation
                      JOINT RightHandPinky3
                      {
                        OFFSET -3.062664 -1e-06 -4e-06
                        CHANNELS 3 Zrotation Yrotation Xrotation
                        JOINT RightHandPinky4
                        {
                          OFFSET -1.546529 2e-06 4e-06
                          CHANNELS 3 Zrotation Yrotation Xrotation
                          JOINT RightHandPinkyEnd
                          {
                            OFFSET -1.952341 0.0 -4e-06
                            CHANNELS 3 Zrotation Yrotation Xrotation
                          }
                        }
                      }
                    }
                  }
                }
              }
            }
          }
        }
      }
    }
    JOINT LeftLeg
    {
      OFFSET -8.443107 2.567604 10.043214
      CHANNELS 3 Zrotation Yrotation Xrotation
      JOINT LeftShin
      {
        OFFSET 43.229198 1e-06 -1e-06
        CHANNELS 3 Zrotation Yrotation Xrotation
        JOINT LeftFoot
        {
          OFFSET 42.298611 1e-06 1e-06
          CHANNELS 3 Zrotation Yrotation Xrotation
          JOINT LeftToeBase
          {
            OFFSET 14.165858 1e-06 0.0
            CHANNELS 3 Zrotation Yrotation Xrotation
            JOINT LeftToeEnd
            {
              OFFSET 6.7141 -0.234461 0.0
              CHANNELS 3 Zrotation Yrotation Xrotation
            }
          }
        }
      }
    }
    JOINT RightLeg
    {
      OFFSET -8.303923 2.592729 -10.047278
      CHANNELS 3 Zrotation Yrotation Xrotation
      JOINT RightShin
      {
        OFFSET -43.369682 0.0 1e-06
        CHANNELS 3 Zrotation Yrotation Xrotation
        JOINT RightFoot
        {
          OFFSET -42.260784 4e-06 2e-06
          CHANNELS 3 Zrotation Yrotation Xrotation
          JOINT RightToeBase
          {
            OFFSET -14.222245 -2e-06 -1e-06
            CHANNELS 3 Zrotation Yrotation Xrotation
            JOINT RightToeEnd
            {
              OFFSET -6.660062 0.232574 -2e-06
              CHANNELS 3 Zrotation Yrotation Xrotation
            }
          }
        }
      }
    }
  }
}
MOTION
Frames: 4
Frame Time: 0.03333333333333333
0.0 0.0 0.0 0.0 -0.0 0.0 -3.290605 99.954018 -2.889276 90.881012 1.098316 89.878387 -1.991402 -0.566286 -0.227708 -11.219745 -0.698717 0.070392 14.486811 0.241775 -2.108244 23.106756 0.945692 2.748871 -2.568235 -0.662356 -0.380947 -29.978813 1.004264 -1.239975 5e-06 0.0 -0.0 0.037914 -0.006806 -0.07757 0.006168 0.021173 -0.069816 0.033886 -0.036096 -0.081441 -112.847206 -73.10714 123.515556 31.226038 -63.676453 12.421763 26.261713 -0.252116 -0.042614 4.072659 -8.118253 10.073212 17.636627 -26.322729 52.411179 -19.466665 -14.395598 29.410389 -1e-06 -8.774821 -4e-06 16.180199 -18.079697 5.983387 -0.609775 -1.795652 -3.889327 -4.807086 -11.046807 -2.937851 8e-06 -20.976015 -2e-06 -5.01997 -25.033552 -4.031876 7e-06 1e-06 1e-06 -10.634534 -5.686969 -3.565589 10.573277 -17.922951 -3.113901 3e-06 -13.821206 2e-06 -0.501774 -31.181505 -4.027011 -11.599786 -59.749718 7.364777 -13.982712 -7.150194 -2.875041 13.77273 -8.401492 -3.218243 0.347734 -34.211552 0.771656 -0.963028 -17.73337 2.621021 0.0 -1e-06 -1e-06 -17.346415 -20.095213 -4.201782 21.757557 -1.638377 3.866427 2e-06 -6.338823 1e-06 -1.69759 -22.591742 -6.194003 -2e-06 -4e-06 -0.0 38.753273 -70.545959 152.684158 30.790527 -56.214249 20.835554 29.703789 -0.489756 0.022781 -13.618847 8.955392 2.102288 22.182116 -20.375895 49.933327 -16.701811 -16.74353 28.476532 -2e-06 -12.690601 -3e-06 16.474382 -17.317575 2.240684 -0.10592 -1.513856 -4.275885 -5.03904 -5.612869 -2.953552 4e-06 -11.020521 -4e-06 -6.111297 -15.895332 -3.840471 0.0 -0.0 1e-06 -10.283371 -5.680288 -4.341838 11.028295 -11.302406 -2.372632 -1.384269 -14.238579 -6.320118 -0.625439 -26.924183 -3.827602 -3.699805 -49.355705 -4.176382 -13.708525 -7.363476 -3.720939 18.14115 -14.052739 -3.242676 5e-06 -18.78727 -3e-06 -0.429712 -8.456044 2.555507 -1e-06 -0.0 1e-06 -15.923532 -20.094482 -5.473588 30.41921 -7.190826 1.735924 2e-06 -8.162925 -0.0 -1.861903 -22.861469 -6.167945 0.0 -1e-06 -1e-06 178.835617 -3.451087 -4.42601 11.99256 -0.044441 0.039831 -78.279129 -3.87987 -5.361228 -7.286847 1.736811 2.09969 -0.999999 -0.0 0.0 -2.710135 -8.189647 -11.406246 13.750214 0.03953 0.025589 -77.574875 0.490246 -6.371527 -7.132278 0.636748 1.617486 -1.000002 0.0 -0.0 
0.0 0.0 0.0 0.0 -0.0 0.0 -3.267243 99.979355 -2.858088 90.856606 1.061824 89.853134 -1.99965 -0.565074 -0.232104 -11.218593 -0.675507 0.134296 14.486866 0.257467 -2.150241 23.111835 0.892728 2.73656 -2.544741 -0.646264 -0.3469 -30.034906 0.948356 -1.242307 6e-06 0.0 0.0 0.034369 -0.007672 -0.061192 0.019648 0.020109 -0.050294 0.043253 -0.036468 -0.068349 -112.815918 -73.133011 123.519531 31.31776 -63.68058 12.137757 26.276873 -0.3749 -0.104083 3.995855 -8.163946 10.23373 17.636635 -26.322731 52.41119 -19.466663 -14.395596 29.410389 -1e-06 -8.774822 -3e-06 16.169838 -18.044476 5.963768 -0.609776 -1.795653 -3.889328 -4.807091 -11.046809 -2.93785 6e-06 -20.976019 -1e-06 -5.019968 -25.033556 -4.03188 4e-06 2e-06 2e-06 -10.634536 -5.68697 -3.565588 10.573275 -17.922951 -3.113901 2e-06 -13.821209 1e-06 -0.501776 -31.181505 -4.027017 -11.551619 -59.647079 7.418563 -13.982714 -7.150198 -2.875041 13.772731 -8.401492 -3.218241 0.347732 -34.211555 0.771657 -0.963029 -17.73337 2.621019 -1e-06 -1e-06 -0.0 -17.346416 -20.095217 -4.201784 21.757557 -1.638376 3.866428 2e-06 -6.338823 1e-06 -1.697587 -22.591743 -6.194005 -3e-06 -3e-06 -0.0 38.725063 -70.55616 152.757935 30.863146 -56.220409 20.666668 29.594118 -0.470176 -0.008892 -13.601532 8.867426 2.202488 22.182119 -20.375895 49.933319 -16.701815 -16.743528 28.47653 -3e-06 -12.690603 -2e-06 16.494593 -17.332762 2.237357 -0.105919 -1.513857 -4.275881 -5.039041 -5.612872 -2.953558 4e-06 -11.020525 -2e-06 -6.111298 -15.895334 -3.840472 0.0 -0.0 -0.0 -10.283371 -5.680287 -4.341839 11.028294 -11.302406 -2.372633 -1.384268 -14.238581 -6.320119 -0.625439 -26.924187 -3.827601 -3.723532 -49.494751 -4.141545 -13.708527 -7.363477 -3.720938 18.141153 -14.052739 -3.242678 7e-06 -18.787271 -3e-06 -0.429712 -8.456044 2.555507 -1e-06 0.0 2e-06 -15.923536 -20.094482 -5.473585 30.41921 -7.190827 1.735926 2e-06 -8.162926 -1e-06 -1.861901 -22.861469 -6.167943 -0.0 -0.0 -2e-06 178.982086 -3.443524 -4.39343 11.664373 -0.036555 0.083583 -78.162796 -3.946399 -5.438024 -7.307066 1.756635 2.104339 -0.999998 -0.0 0.0 -2.54938 -8.128442 -11.352105 13.36069 0.033672 0.027836 -77.402512 0.43005 -6.325781 -7.145224 0.625004 1.621715 -1.000002 -0.0 -0.0 
0.0 0.0 0.0 0.0 -0.0 0.0 -3.229527 99.989967 -2.854737 90.845352 1.020252 89.81987 -2.022142 -0.562874 -0.236986 -11.232704 -0.66585 0.169439 14.523685 0.268288 -2.168357 23.119549 0.838184 2.737674 -2.565642 -0.624259 -0.349369 -30.014303 0.905442 -1.23763 5e-06 0.0 -0.0 0.029578 -0.007653 -0.052656 0.010949 0.0168 -0.039354 0.035242 -0.033251 -0.062686 -112.835518 -73.161163 123.513931 31.235004 -63.705986 12.070407 26.30006 -0.450411 -0.153593 3.879218 -8.245712 10.245808 17.636629 -26.322729 52.411201 -19.466665 -14.395598 29.410385 -1e-06 -8.774823 -1e-06 16.190882 -18.041906 5.94097 -0.609777 -1.795654 -3.889326 -4.807088 -11.046812 -2.937852 3e-06 -20.976019 -2e-06 -5.01997 -25.03356 -4.031881 4e-06 1e-06 1e-06 -10.634535 -5.68697 -3.565588 10.573274 -17.922951 -3.113898 2e-06 -13.821206 -1e-06 -0.501777 -31.181505 -4.027017 -11.556142 -59.567131 7.422276 -13.982713 -7.150198 -2.875039 13.772731 -8.40149 -3.218244 0.347734 -34.211555 0.771654 -0.96303 -17.73337 2.62102 0.0 -1e-06 1e-06 -17.346416 -20.095217 -4.20178 21.757557 -1.638374 3.866426 1e-06 -6.338821 -0.0 -1.697587 -22.591745 -6.194007 -2e-06 -1e-06 1e-06 38.663158 -70.557564 152.840897 30.893131 -56.207836 20.521896 29.512035 -0.481384 -0.035032 -13.618555 8.83692 2.309093 22.182121 -20.375891 49.933323 -16.701817 -16.74353 28.47653 -2e-06 -12.690603 -4e-06 16.49338 -17.301693 2.242617 -0.10592 -1.513856 -4.275881 -5.039041 -5.612873 -2.953557 4e-06 -11.020525 -3e-06 -6.111298 -15.895334 -3.840471 -0.0 -0.0 -1e-06 -10.283371 -5.68029 -4.341841 11.028296 -11.302404 -2.372633 -1.384269 -14.238581 -6.320121 -0.625438 -26.924191 -3.827604 -3.733264 -49.512043 -4.126647 -13.708527 -7.363478 -3.720939 18.141151 -14.052739 -3.242674 6e-06 -18.78727 -1e-06 -0.429713 -8.456045 2.555503 -1e-06 1e-06 1e-06 -15.923539 -20.094486 -5.473585 30.419218 -7.190825 1.735927 2e-06 -8.162927 -0.0 -1.861903 -22.861471 -6.167946 -0.0 -1e-06 -2e-06 178.983276 -3.424943 -4.364751 11.587491 -0.034517 0.107257 -78.138321 -3.986633 -5.446992 -7.287155 1.763128 2.107452 -1.0 -0.0 0.0 -2.514587 -8.118562 -11.297704 13.179861 0.036417 0.018719 -77.305145 0.385313 -6.344165 -7.1181 0.626211 1.625607 -1.000002 0.0 -0.0 
0.0 0.0 0.0 0.0 -0.0 0.0 -3.222646 99.995369 -2.847327 90.832832 0.987202 89.787804 -2.038456 -0.560489 -0.24672 -11.246559 -0.661703 0.179487 14.56385 0.277266 -2.153538 23.128761 0.783923 2.720175 -2.593143 -0.606554 -0.354185 -30.006016 0.887301 -1.235458 6e-06 0.0 -0.0 0.024545 -0.007848 -0.050264 -0.00414 0.013724 -0.035759 0.020028 -0.030634 -0.061986 -112.827446 -73.181664 123.517181 31.247818 -63.724182 12.005933 26.309547 -0.48821 -0.175967 3.791559 -8.256959 10.311473 17.636639 -26.322741 52.411213 -19.466665 -14.395602 29.410395 -0.0 -8.774824 -1e-06 16.20837 -18.030651 5.926855 -0.609776 -1.795654 -3.889328 -4.807091 -11.046811 -2.937852 4e-06 -20.976021 -1e-06 -5.01997 -25.03356 -4.031882 4e-06 2e-06 0.0 -10.634537 -5.686973 -3.565588 10.573277 -17.922955 -3.113901 3e-06 -13.821211 -0.0 -0.501777 -31.181511 -4.027019 -11.566892 -59.526745 7.406028 -13.982718 -7.1502 -2.875044 13.772731 -8.401493 -3.218243 0.347733 -34.211559 0.771657 -0.963031 -17.733372 2.621021 0.0 0.0 -0.0 -17.346424 -20.095221 -4.201783 21.757563 -1.638376 3.866429 2e-06 -6.338825 1e-06 -1.697589 -22.591755 -6.19401 -1e-06 -1e-06 1e-06 38.630169 -70.566559 152.898392 30.945473 -56.203007 20.477215 29.431061 -0.45037 -0.041089 -13.662822 8.778362 2.343066 22.182119 -20.375895 49.933323 -16.701813 -16.743528 28.47653 -2e-06 -12.690601 -3e-06 16.481926 -17.264788 2.257675 -0.10592 -1.513855 -4.275881 -5.039041 -5.612873 -2.953557 3e-06 -11.020523 -3e-06 -6.111298 -15.895334 -3.84047 -0.0 -0.0 -0.0 -10.283371 -5.680286 -4.341839 11.028292 -11.302406 -2.372632 -1.384269 -14.238581 -6.320123 -0.625439 -26.924187 -3.827602 -3.764769 -49.472466 -4.087799 -13.708526 -7.363476 -3.720942 18.141148 -14.052739 -3.242674 5e-06 -18.78727 -2e-06 -0.429712 -8.456044 2.555506 -1e-06 -0.0 1e-06 -15.923538 -20.094482 -5.473583 30.41921 -7.190826 1.735928 1e-06 -8.162925 -1e-06 -1.861903 -22.861469 -6.167945 -0.0 -2e-06 -1e-06 178.974915 -3.430504 -4.369096 11.553773 -0.037278 0.117838 -78.131012 -4.005541 -5.447608 -7.259428 1.761248 2.106685 -1.0 1e-06 -0.0 -2.513269 -8.099002 -11.258852 13.09609 0.039622 -0.001485 -77.261627 0.369643 -6.372293 -7.098642 0.620539 1.625341 -1.000002 -0.0 0.0 
